<svg width="120" height="120" xmlns="http://www.w3.org/2000/svg" viewBox="0 0 100 100" preserveAspectRatio="xMidYMid" class="uil-hourglass"><path fill="none" class="bk" d="M0 0h100v100H0z"/><g><path fill="none" stroke="#999" stroke-width="5" stroke-miterlimit="10" d="M58.4 51.7c-.9-.9-1.4-2-1.4-2.3s.5-.4 1.4-1.4C70.8 43.8 79.8 30.5 80 15.5H20c.2 15 9.2 28.1 21.6 32.3.9.9 1.4 1.2 1.4 1.5s-.5 1.6-1.4 2.5C29.2 56.1 20.2 69.5 20 85.5h60c-.2-16-9.2-29.6-21.6-33.8z" class="glass"/><clipPath id="a"><path class="clip" d="M15 20h70v25H15z"><animate attributeName="height" from="25" to="0" dur="1s" repeatCount="indefinite" keyTimes="0;0.5;1"/><animate attributeName="y" from="20" to="45" dur="1s" repeatCount="indefinite" keyTimes="0;0.5;1"/></path></clipPath><clipPath id="b"><path class="clip" d="M15 55h70v25H15z"><animate attributeName="height" from="0" to="25" dur="1s" repeatCount="indefinite" keyTimes="0;0.5;1"/><animate attributeName="y" from="80" to="55" dur="1s" repeatCount="indefinite" keyTimes="0;0.5;1"/></path></clipPath><path d="M29 23c3.1 11.4 11.3 19.5 21 19.5S67.9 34.4 71 23H29z" clip-path="url(#a)" fill="#ffab00" class="sand"/><path d="M71.6 78c-3-11.6-11.5-20-21.5-20s-18.5 8.4-21.5 20h43z" clip-path="url(#b)" fill="#ffab00" class="sand"/><animateTransform attributeName="transform" type="rotate" from="0 50 50" to="180 50 50" repeatCount="indefinite" dur="1s" values="0 50 50;0 50 50;180 50 50" keyTimes="0;0.7;1"/></g></svg>